<svg width="975" height="927" viewBox="0 0 975 927" fill="none" xmlns="http://www.w3.org/2000/svg">
<path d="M58.3801 277.653C45.7871 239.725 49.2105 206.107 66.3257 182.202C87.1714 153.113 129.791 136.425 192.522 136.425H227.158V397.725C227.158 495.5 275.363 572.229 327.809 626.759C376.381 677.261 429.056 709.23 452.047 721.915C452.027 722.274 452.017 722.637 452.017 723.003V793.745C452.017 805.572 461.564 815.413 473.594 815.413C485.462 815.413 495.172 805.736 495.172 793.745V723.003C495.172 722.864 495.17 722.726 495.167 722.588C520.621 710.095 579.933 678.178 634.686 627.552C693.598 573.08 748.089 496.121 748.089 397.725V136.522H782.726C845.468 136.522 888.168 153.215 908.913 182.287L908.92 182.296C926.037 206.202 929.461 239.821 916.868 277.75L916.867 277.751C908.465 303.072 882.779 341.423 853.028 378.276C823.424 414.948 790.827 448.881 769.552 465.449C760.029 472.799 758.526 486.424 765.668 495.813L765.694 495.847L765.72 495.88C769.998 501.373 776.367 504.206 782.726 504.206C787.289 504.206 792.01 502.736 795.899 499.725L795.908 499.718L795.917 499.711C820.911 480.235 856.184 443.542 887.614 404.372C918.925 365.35 947.332 322.755 957.718 291.399L957.719 291.395C974.289 241.267 969.881 193.325 943.874 156.972L943.866 156.961C922.387 127.056 876.945 93.1862 782.63 93.1862H726.608H192.522C98.2064 93.1862 52.7639 127.056 31.2856 156.961L31.2775 156.972L31.2693 156.984C5.37445 193.323 0.856608 241.257 17.5312 291.403C30.3492 330.1 58.0442 372.133 88.5968 409.248C119.22 446.449 153.23 479.329 179.317 499.701C183.247 502.777 187.866 504.303 192.522 504.303C198.798 504.303 205.371 501.523 209.621 495.758C216.748 486.329 215.15 472.882 205.739 465.483L205.73 465.475L205.72 465.468C182.733 447.512 151.342 417.194 122.882 382.848C94.3378 348.4 69.3187 310.585 58.3801 277.653ZM58.3801 277.653L51.2647 280.015L58.3801 277.653ZM726.608 50.8356C738.475 50.8356 748.186 41.1585 748.186 29.1678C748.186 17.2106 738.605 7.5 726.608 7.5H248.736C236.869 7.5 227.158 17.1771 227.158 29.1678C227.158 41.125 236.739 50.8356 248.736 50.8356H726.608ZM705.03 397.725C705.03 480.829 656.544 548.302 602.27 597.735C551.12 644.323 495.76 674.015 474.197 684.665C454.477 673.617 405.743 643.915 360.837 597.587C313.077 548.314 270.314 480.947 270.314 397.725V136.522H705.03V397.725ZM319.028 828.651C282.724 828.651 255.314 856.42 255.314 892.726V935.132C255.314 946.959 264.861 956.8 276.892 956.8H670.393C682.261 956.8 691.971 947.123 691.971 935.132V894.861C691.971 858.135 664.235 828.651 628.257 828.651H319.028ZM648.816 894.861V913.561H298.469V892.726C298.469 886.155 300.717 881.034 304.142 877.579C307.563 874.128 312.601 871.89 319.028 871.89H628.16C639.565 871.89 648.816 881.054 648.816 894.861Z" fill="white" stroke="white" stroke-width="15"/>
</svg>
